{"title":"The.Incredible.Burt.Wonderstone.2013.R6.HDRip.XViD-26k","uid":8340411,"size":1472181246,"categoryP":"video","categoryS":"movies","magnet":"?xt=urn:btih:42e48b95b12bd2cef3f8b4864593c0ae482ed1fc&amp;dn=The.Incredible.Burt.Wonderstone.2013.R6.HDRip.XViD-26k&amp;tr=udp%3A%2F%2Ftracker.openbittorrent.com%3A80&amp;tr=udp%3A%2F%2Fopen.demonii.com%3A1337&amp;tr=udp%3A%2F%2Ftracker.coppersurfer.tk%3A6969&amp;tr=udp%3A%2F%2Fexodus.desync.com%3A6969","seeders":1,"leechers":0,"uploader":"Gh0stNet","files":8,"time":1365086879,"description":"\tThe.Incredible.Burt.Wonderstone.2013.R6.HDRip.XViD-26k\n\n &lt;a href=&quot;\nhttp://www.imdb.com/title/tt0790628/&quot; rel=&quot;nofollow&quot; target=&quot;_NEW&quot;&gt;\nhttp://www.imdb.com/title/tt0790628/&lt;/a&gt;\n\n\nPlot:\n\n\nWhen a street magician's stunts begins to make their show look stale, superstar magicians Burt Wonderstone\nand Anton Marvelton look to salvage on their act - and their friendship - by staging their own daring stunt.\n\n\n\nSources - VIDEO: Chinese 720 RMVB ..... thanks ....\n         AUDIO: Chinese 720 RMVB ..... thanks ....\n\n\n         \n\n\n\nFormat                                   : AVI\nFormat/Info                              : Audio Video Interleave\nFile size                                : 1.37 GiB\nDuration                                 : 1h 34mn\nOverall bit rate                         : 2 071 Kbps\nWriting library                          : VirtualDub build 32839/release\n\nVideo\nID                                       : 0\nFormat                                   : MPEG-4 Visual\nFormat profile                           : Advanced Simple@L5\nFormat settings, BVOP                    : 2\nFormat settings, QPel                    : No\nFormat settings, GMC                     : No warppoints\nFormat settings, Matrix                  : Default (H.263)\nMuxing mode                              : Packed bitstream\nCodec ID                                 : XVID\nCodec ID/Hint                            : XviD\nDuration                                 : 1h 34mn\nBit rate                                 : 1 933 Kbps\nWidth                                    : 720 pixels\nHeight                                   : 304 pixels\nDisplay aspect ratio                     : 2.35:1\nFrame rate                               : 23.976 fps\nColor space                              : YUV\nChroma subsampling                       : 4:2:0\nBit depth                                : 8 bits\nScan type                                : Progressive\nCompression mode                         : Lossy\nBits/(Pixel*Frame)                       : 0.368\nStream size                              : 1.28 GiB (93%)\nWriting library                          : XviD 64\n\nAudio\nID                                       : 1\nFormat                                   : MPEG Audio\nFormat version                           : Version 1\nFormat profile                           : Layer 3\nCodec ID                                 : 55\nCodec ID/Hint                            : MP3\nDuration                                 : 1h 34mn\nBit rate mode                            : Constant\nBit rate                                 : 128 Kbps\nChannel(s)                               : 2 channels\nSampling rate                            : 44.1 KHz\nCompression mode                         : Lossy\nStream size                              : 86.8 MiB (6%)\nAlignment                                : Split accross interleaves\nInterleave, duration                     : 42 ms (1.00 video frame)\n\n\n\n\n\n\n\nNotes -\n\nTook the Chinese 720 RMVB and made a script to crop and resize then dropped that into\nvdub and added a few other lil changes then converted audio to mp3 and remuxed.. enjoy\n\nYES it does ahv HC Chinese subs and a website watermark that didnt blur or crop as would lost\nto much pic or lost visability of to much and they dont bother me tbh..\n\n\n\n[/code]\n\nScreens: &lt;a href=&quot;\nhttp://i.imgur.com/PIkZsnB.jpg&quot; rel=&quot;nofollow&quot; target=&quot;_NEW&quot;&gt;\nhttp://i.imgur.com/PIkZsnB.jpg&lt;/a&gt; &lt;a href=&quot;\nhttp://i.imgur.com/pvshFlE.jpg&quot; rel=&quot;nofollow&quot; target=&quot;_NEW&quot;&gt;\nhttp://i.imgur.com/pvshFlE.jpg&lt;/a&gt; &lt;a href=&quot;\nhttp://i.imgur.com/ok3bSGP.jpg&quot; rel=&quot;nofollow&quot; target=&quot;_NEW&quot;&gt;\nhttp://i.imgur.com/ok3bSGP.jpg&lt;/a&gt; &lt;a href=&quot;\nhttp://i.imgur.com/tUA4CCC.jpg&quot; rel=&quot;nofollow&quot; target=&quot;_NEW&quot;&gt;\nhttp://i.imgur.com/tUA4CCC.jpg&lt;/a&gt;\n","torrent":{"xt":"urn:btih:42e48b95b12bd2cef3f8b4864593c0ae482ed1fc","amp;dn":"The.Incredible.Burt.Wonderstone.2013.R6.HDRip.XViD-26k","amp;tr":["udp%3A%2F%2Ftracker.openbittorrent.com%3A80","udp%3A%2F%2Fopen.demonii.com%3A1337","udp%3A%2F%2Ftracker.coppersurfer.tk%3A6969","udp%3A%2F%2Fexodus.desync.com%3A6969"],"infoHash":"42e48b95b12bd2cef3f8b4864593c0ae482ed1fc","infoHashBuffer":{"type":"Buffer","data":[66,228,139,149,177,43,210,206,243,248,180,134,69,147,192,174,72,46,209,252]},"announce":[],"urlList":[]}}